<svg width="18" height="17" fill="none" xmlns="http://www.w3.org/2000/svg"><path d="M2.53 16.776h5.634v-5.963H6.14V8.847h2.024V6.389c0-1.355 1.135-2.457 2.53-2.457h2.53v1.966H11.2c-.558 0-1.012.44-1.012.983v1.966h2.945l-.337 1.966h-2.608v5.963h4.554c1.396 0 2.53-1.102 2.53-2.457V2.457c0-1.355-1.134-2.457-2.53-2.457H2.53C1.135 0 0 1.102 0 2.457V14.32c0 1.355 1.135 2.457 2.53 2.457zM1.012 2.457c0-.813.681-1.474 1.518-1.474h12.213c.837 0 1.518.661 1.518 1.474V14.32c0 .813-.681 1.474-1.518 1.474H11.2v-3.997h2.453l.675-3.932H11.2V6.88h3.037V2.949h-3.543c-1.953 0-3.542 1.543-3.542 3.44v1.475H5.128v3.932h2.024v3.997H2.53c-.837 0-1.518-.661-1.518-1.474V2.457z" fill="#fff"/></svg>