<svg width="18" height="17" fill="none" xmlns="http://www.w3.org/2000/svg"><path d="M2.53 16.776h12.213c1.395 0 2.53-1.102 2.53-2.457V2.457c0-1.355-1.135-2.457-2.53-2.457H2.53C1.135 0 0 1.102 0 2.457V14.32c0 1.355 1.135 2.457 2.53 2.457zM1.012 2.457c0-.813.681-1.474 1.518-1.474h12.213c.837 0 1.518.661 1.518 1.474V14.32c0 .813-.681 1.474-1.518 1.474H2.53c-.837 0-1.518-.661-1.518-1.474V2.457z" fill="#fff"/><path d="M8.636 12.811c2.512 0 4.555-1.984 4.555-4.423s-2.043-4.423-4.555-4.423c-2.51 0-4.554 1.984-4.554 4.423s2.043 4.423 4.554 4.423zm0-7.863c1.954 0 3.543 1.543 3.543 3.44s-1.59 3.44-3.543 3.44-3.542-1.543-3.542-3.44 1.59-3.44 3.542-3.44zm4.774-.238c.826 0 1.5-.655 1.5-1.458 0-.803-.674-1.457-1.5-1.457-.828 0-1.5.654-1.5 1.457s.672 1.457 1.5 1.457zm0-1.943c.275 0 .5.217.5.485a.494.494 0 01-.5.486.494.494 0 01-.5-.486c0-.268.223-.485.5-.485z" fill="#fff"/></svg>