<svg width="12" height="12" fill="none" xmlns="http://www.w3.org/2000/svg"><path d="M11.74 5.21a.855.855 0 00.217-.882.855.855 0 00-.695-.586L8.357 3.32a.38.38 0 01-.286-.208L6.77.48A.855.855 0 006 0a.855.855 0 00-.772.48l-1.3 2.632a.38.38 0 01-.286.208l-2.905.422a.855.855 0 00-.695.586.855.855 0 00.217.882l2.103 2.05a.38.38 0 01.11.336l-.497 2.893a.843.843 0 00.188.698.87.87 0 001.06.21l2.6-1.367a.39.39 0 01.353 0l2.599 1.367a.863.863 0 001.248-.907l-.496-2.894a.38.38 0 01.11-.336l2.102-2.05z" fill="#9D2929"/></svg>