<svg width="12" height="12" fill="none" xmlns="http://www.w3.org/2000/svg"><path d="M11.74 5.21a.855.855 0 00.217-.882.855.855 0 00-.695-.585L8.357 3.32a.38.38 0 01-.286-.208L6.77.48A.855.855 0 006 0a.855.855 0 00-.772.48L3.93 3.112a.38.38 0 01-.286.208l-2.906.423a.855.855 0 00-.694.585.855.855 0 00.217.882l2.103 2.05a.38.38 0 01.11.336l-.497 2.894a.855.855 0 00.342.841c.267.195.614.22.907.066l2.598-1.366a.38.38 0 01.354 0l2.599 1.366a.86.86 0 001.248-.907l-.496-2.894a.38.38 0 01.11-.336l2.102-2.05zM9.054 7.678l.497 2.893a.373.373 0 01-.152.372.374.374 0 01-.4.029L6.401 9.605a.864.864 0 00-.802 0l-2.598 1.367a.375.375 0 01-.4-.03.373.373 0 01-.151-.37l.496-2.894a.86.86 0 00-.248-.762L.596 4.866a.372.372 0 01-.096-.39.373.373 0 01.306-.258l2.906-.422a.86.86 0 00.648-.47L5.659.691a.373.373 0 01.34-.211c.149 0 .276.079.342.211L7.64 3.325c.125.254.367.43.648.47l2.905.423a.373.373 0 01.307.259c.046.14.01.286-.096.39L9.302 6.915a.86.86 0 00-.248.762z" fill="#9D2929"/></svg>